<mxfile host="65bd71144e">
    <diagram id="95ASl8XKtzK30WQKoCWe" name="Page-1">
        <mxGraphModel dx="3986" dy="-3329" grid="1" gridSize="10" guides="1" tooltips="1" connect="1" arrows="1" fold="1" page="1" pageScale="1" pageWidth="850" pageHeight="1100" math="0" shadow="0">
            <root>
                <mxCell id="0"/>
                <mxCell id="1" parent="0"/>
                <mxCell id="545" value="" style="whiteSpace=wrap;html=1;fontColor=#CC0000;fillColor=none;" parent="1" vertex="1">
                    <mxGeometry x="-170" y="5450" width="490" height="680" as="geometry"/>
                </mxCell>
                <mxCell id="504" value="" style="whiteSpace=wrap;html=1;fillColor=none;" parent="1" vertex="1">
                    <mxGeometry x="-940" y="5270" width="220" height="940" as="geometry"/>
                </mxCell>
                <mxCell id="505" value="&lt;span style=&quot;&quot;&gt;&lt;font color=&quot;#ff0000&quot;&gt;o_reg_MemRead_fromCU&lt;/font&gt;&lt;/span&gt;" style="whiteSpace=wrap;html=1;" parent="1" vertex="1">
                    <mxGeometry x="-910" y="5290" width="160" height="50" as="geometry"/>
                </mxCell>
                <mxCell id="586" value="" style="edgeStyle=orthogonalEdgeStyle;html=1;strokeColor=#CC0000;strokeWidth=2;fontColor=#000000;endArrow=none;endFill=0;" parent="1" source="506" target="516" edge="1">
                    <mxGeometry relative="1" as="geometry"/>
                </mxCell>
                <mxCell id="506" value="&lt;span style=&quot;&quot;&gt;&lt;font color=&quot;#ff0000&quot;&gt;o_reg_MemWrite_fromCU&lt;/font&gt;&lt;/span&gt;" style="whiteSpace=wrap;html=1;" parent="1" vertex="1">
                    <mxGeometry x="-910" y="5350" width="160" height="50" as="geometry"/>
                </mxCell>
                <mxCell id="573" style="edgeStyle=orthogonalEdgeStyle;html=1;entryX=0.003;entryY=0.379;entryDx=0;entryDy=0;entryPerimeter=0;fontColor=#000000;endArrow=none;endFill=0;" parent="1" source="507" target="545" edge="1">
                    <mxGeometry relative="1" as="geometry">
                        <Array as="points">
                            <mxPoint x="-530" y="5685"/>
                            <mxPoint x="-530" y="5708"/>
                        </Array>
                    </mxGeometry>
                </mxCell>
                <mxCell id="574" style="edgeStyle=orthogonalEdgeStyle;html=1;entryX=0.707;entryY=1.008;entryDx=0;entryDy=0;entryPerimeter=0;fontColor=#000000;endArrow=none;endFill=0;" parent="1" source="507" target="570" edge="1">
                    <mxGeometry relative="1" as="geometry"/>
                </mxCell>
                <mxCell id="575" style="edgeStyle=orthogonalEdgeStyle;html=1;entryX=-0.008;entryY=0.681;entryDx=0;entryDy=0;entryPerimeter=0;fontColor=#000000;endArrow=none;endFill=0;" parent="1" source="507" target="545" edge="1">
                    <mxGeometry relative="1" as="geometry">
                        <Array as="points">
                            <mxPoint x="-530" y="5685"/>
                            <mxPoint x="-530" y="5913"/>
                        </Array>
                    </mxGeometry>
                </mxCell>
                <mxCell id="507" value="o_reg_result_fromALU&lt;br&gt;(32)" style="whiteSpace=wrap;html=1;fillColor=none;" parent="1" vertex="1">
                    <mxGeometry x="-920" y="5660" width="160" height="50" as="geometry"/>
                </mxCell>
                <mxCell id="576" style="edgeStyle=orthogonalEdgeStyle;html=1;entryX=-0.008;entryY=0.727;entryDx=0;entryDy=0;entryPerimeter=0;fontColor=#000000;endArrow=none;endFill=0;strokeColor=#0000FF;strokeWidth=2;" parent="1" source="508" target="545" edge="1">
                    <mxGeometry relative="1" as="geometry">
                        <Array as="points">
                            <mxPoint x="-580" y="5785"/>
                            <mxPoint x="-580" y="5944"/>
                        </Array>
                    </mxGeometry>
                </mxCell>
                <mxCell id="577" style="edgeStyle=orthogonalEdgeStyle;html=1;entryX=-0.011;entryY=0.422;entryDx=0;entryDy=0;entryPerimeter=0;fontColor=#000000;endArrow=none;endFill=0;strokeColor=#0000FF;strokeWidth=2;" parent="1" source="508" target="545" edge="1">
                    <mxGeometry relative="1" as="geometry">
                        <Array as="points">
                            <mxPoint x="-580" y="5785"/>
                            <mxPoint x="-580" y="5737"/>
                        </Array>
                    </mxGeometry>
                </mxCell>
                <mxCell id="578" style="edgeStyle=orthogonalEdgeStyle;html=1;entryX=0;entryY=0;entryDx=0;entryDy=0;fontColor=#000000;endArrow=none;endFill=0;strokeColor=#0000FF;strokeWidth=2;" parent="1" source="508" target="532" edge="1">
                    <mxGeometry relative="1" as="geometry">
                        <Array as="points">
                            <mxPoint x="-580" y="5785"/>
                            <mxPoint x="-580" y="5570"/>
                            <mxPoint x="-167" y="5570"/>
                        </Array>
                    </mxGeometry>
                </mxCell>
                <mxCell id="508" value="o_reg_read2_fromRegFile&lt;br&gt;(32)" style="whiteSpace=wrap;html=1;fillColor=none;" parent="1" vertex="1">
                    <mxGeometry x="-915" y="5760" width="160" height="50" as="geometry"/>
                </mxCell>
                <mxCell id="588" style="edgeStyle=orthogonalEdgeStyle;html=1;strokeColor=#00CC00;strokeWidth=2;fontColor=#000000;endArrow=none;endFill=0;entryX=0.075;entryY=0.639;entryDx=0;entryDy=0;entryPerimeter=0;" parent="1" source="510" target="554" edge="1">
                    <mxGeometry relative="1" as="geometry">
                        <mxPoint x="883.4286063058036" y="5460" as="targetPoint"/>
                        <Array as="points">
                            <mxPoint x="-600" y="5450"/>
                            <mxPoint x="-600" y="5390"/>
                            <mxPoint x="949" y="5390"/>
                        </Array>
                    </mxGeometry>
                </mxCell>
                <mxCell id="510" value="o_reg_whbLS_fromCU&lt;br&gt;(3)" style="whiteSpace=wrap;html=1;fontColor=#FF0000;" parent="1" vertex="1">
                    <mxGeometry x="-910" y="5420" width="150" height="60" as="geometry"/>
                </mxCell>
                <mxCell id="511" style="edgeStyle=elbowEdgeStyle;html=1;exitX=1;exitY=0.5;exitDx=0;exitDy=0;entryX=1;entryY=0.75;entryDx=0;entryDy=0;fontColor=#FF0000;endArrow=none;endFill=0;" parent="1" source="510" target="510" edge="1">
                    <mxGeometry relative="1" as="geometry"/>
                </mxCell>
                <mxCell id="513" value="Address for&lt;br&gt;Load/Store" style="ellipse;shape=cloud;whiteSpace=wrap;html=1;fontColor=#000000;" parent="1" vertex="1">
                    <mxGeometry x="-1045" y="5645" width="120" height="80" as="geometry"/>
                </mxCell>
                <mxCell id="514" value="Data for&lt;br&gt;&lt;strike&gt;Load&lt;/strike&gt;/Store" style="ellipse;shape=cloud;whiteSpace=wrap;html=1;fontColor=#000000;" parent="1" vertex="1">
                    <mxGeometry x="-1035" y="5740" width="120" height="80" as="geometry"/>
                </mxCell>
                <mxCell id="584" style="edgeStyle=orthogonalEdgeStyle;html=1;strokeColor=#CC0000;strokeWidth=2;fontColor=#000000;endArrow=none;endFill=0;entryX=0.131;entryY=0.513;entryDx=0;entryDy=0;entryPerimeter=0;" parent="1" source="516" target="552" edge="1">
                    <mxGeometry relative="1" as="geometry">
                        <mxPoint x="173.14278738839286" y="5320" as="targetPoint"/>
                        <Array as="points">
                            <mxPoint x="-660" y="5520"/>
                            <mxPoint x="-660" y="5360"/>
                            <mxPoint x="762" y="5360"/>
                        </Array>
                    </mxGeometry>
                </mxCell>
                <mxCell id="585" style="edgeStyle=orthogonalEdgeStyle;html=1;strokeColor=#FF0000;strokeWidth=2;fontColor=#000000;endArrow=none;endFill=0;entryX=0.15;entryY=0.536;entryDx=0;entryDy=0;entryPerimeter=0;" parent="1" source="516" target="562" edge="1">
                    <mxGeometry relative="1" as="geometry">
                        <mxPoint x="710" y="5950" as="targetPoint"/>
                        <Array as="points">
                            <mxPoint x="-660" y="5520"/>
                            <mxPoint x="-660" y="5360"/>
                            <mxPoint x="802" y="5360"/>
                        </Array>
                    </mxGeometry>
                </mxCell>
                <mxCell id="587" value="" style="edgeStyle=orthogonalEdgeStyle;html=1;strokeColor=#CC0000;strokeWidth=2;fontColor=#000000;endArrow=none;endFill=0;" parent="1" source="516" target="510" edge="1">
                    <mxGeometry relative="1" as="geometry"/>
                </mxCell>
                <mxCell id="592" value="1" style="edgeStyle=orthogonalEdgeStyle;html=1;entryX=0;entryY=0.25;entryDx=0;entryDy=0;strokeColor=#FF0000;strokeWidth=2;fontColor=#000000;endArrow=none;endFill=0;" parent="1" source="516" target="532" edge="1">
                    <mxGeometry relative="1" as="geometry"/>
                </mxCell>
                <mxCell id="598" value="1" style="edgeLabel;html=1;align=center;verticalAlign=middle;resizable=0;points=[];fontColor=#000000;" parent="592" vertex="1" connectable="0">
                    <mxGeometry x="0.619" relative="1" as="geometry">
                        <mxPoint as="offset"/>
                    </mxGeometry>
                </mxCell>
                <mxCell id="593" style="edgeStyle=orthogonalEdgeStyle;html=1;entryX=-0.002;entryY=0.457;entryDx=0;entryDy=0;entryPerimeter=0;strokeColor=#FF0000;strokeWidth=2;fontColor=#000000;endArrow=none;endFill=0;" parent="1" source="516" target="545" edge="1">
                    <mxGeometry relative="1" as="geometry">
                        <Array as="points">
                            <mxPoint x="-459" y="5520"/>
                            <mxPoint x="-459" y="5761"/>
                        </Array>
                    </mxGeometry>
                </mxCell>
                <mxCell id="596" value="1" style="edgeLabel;html=1;align=center;verticalAlign=middle;resizable=0;points=[];fontColor=#000000;" parent="593" vertex="1" connectable="0">
                    <mxGeometry x="0.6892" y="-4" relative="1" as="geometry">
                        <mxPoint as="offset"/>
                    </mxGeometry>
                </mxCell>
                <mxCell id="594" style="edgeStyle=orthogonalEdgeStyle;html=1;entryX=0.002;entryY=0.799;entryDx=0;entryDy=0;entryPerimeter=0;strokeColor=#FF0000;strokeWidth=2;fontColor=#000000;endArrow=none;endFill=0;" parent="1" source="516" target="545" edge="1">
                    <mxGeometry relative="1" as="geometry"/>
                </mxCell>
                <mxCell id="595" value="3" style="edgeLabel;html=1;align=center;verticalAlign=middle;resizable=0;points=[];fontColor=#000000;" parent="594" vertex="1" connectable="0">
                    <mxGeometry x="-0.6682" y="-10" relative="1" as="geometry">
                        <mxPoint as="offset"/>
                    </mxGeometry>
                </mxCell>
                <mxCell id="597" value="1" style="edgeLabel;html=1;align=center;verticalAlign=middle;resizable=0;points=[];fontColor=#000000;" parent="594" vertex="1" connectable="0">
                    <mxGeometry x="0.7516" y="-1" relative="1" as="geometry">
                        <mxPoint as="offset"/>
                    </mxGeometry>
                </mxCell>
                <mxCell id="516" value="&lt;font color=&quot;#ff0000&quot;&gt;o_reg_signedLoad_fromCU&lt;/font&gt;" style="whiteSpace=wrap;html=1;fillColor=none;" parent="1" vertex="1">
                    <mxGeometry x="-912.5" y="5490" width="165" height="60" as="geometry"/>
                </mxCell>
                <mxCell id="527" value="&lt;div style=&quot;background-color: rgb(255, 255, 255); font-family: Consolas, &amp;quot;Courier New&amp;quot;, monospace; font-size: 14px; line-height: 19px;&quot;&gt;i_addr_forWordMode&lt;/div&gt;" style="text;html=1;align=center;verticalAlign=middle;resizable=0;points=[];autosize=1;strokeColor=none;fillColor=none;" parent="1" vertex="1">
                    <mxGeometry x="-170" y="5525" width="160" height="30" as="geometry"/>
                </mxCell>
                <mxCell id="530" value="&lt;div style=&quot;color: rgb(0, 0, 0); background-color: rgb(255, 255, 255); font-family: Consolas, &amp;quot;Courier New&amp;quot;, monospace; font-weight: normal; font-size: 14px; line-height: 19px;&quot;&gt;&lt;div&gt;&lt;span style=&quot;color: #000000;&quot;&gt;i_data_forWordMode&lt;/span&gt;&lt;/div&gt;&lt;/div&gt;" style="text;whiteSpace=wrap;html=1;" parent="1" vertex="1">
                    <mxGeometry x="-165" y="5555" width="170" height="40" as="geometry"/>
                </mxCell>
                <mxCell id="567" style="edgeStyle=orthogonalEdgeStyle;html=1;entryX=0.258;entryY=0.993;entryDx=0;entryDy=0;entryPerimeter=0;fontColor=#000000;endArrow=none;endFill=0;" parent="1" source="531" target="554" edge="1">
                    <mxGeometry relative="1" as="geometry">
                        <Array as="points">
                            <mxPoint x="840" y="5575"/>
                            <mxPoint x="840" y="5764"/>
                        </Array>
                    </mxGeometry>
                </mxCell>
                <mxCell id="583" style="edgeStyle=orthogonalEdgeStyle;html=1;entryX=1;entryY=0.75;entryDx=0;entryDy=0;strokeColor=#FF8000;strokeWidth=2;fontColor=#000000;endArrow=none;endFill=0;" parent="1" source="531" target="581" edge="1">
                    <mxGeometry relative="1" as="geometry">
                        <Array as="points">
                            <mxPoint x="390" y="5575"/>
                            <mxPoint x="390" y="5160"/>
                            <mxPoint x="110" y="5160"/>
                            <mxPoint x="110" y="5185"/>
                        </Array>
                    </mxGeometry>
                </mxCell>
                <mxCell id="531" value="&lt;div style=&quot;background-color: rgb(255, 255, 255); font-family: Consolas, &amp;quot;Courier New&amp;quot;, monospace; font-weight: normal; font-size: 14px; line-height: 19px;&quot;&gt;&lt;div&gt;&lt;span style=&quot;&quot;&gt;o_data_forWordMode&lt;/span&gt;&lt;/div&gt;&lt;/div&gt;" style="text;whiteSpace=wrap;html=1;fontColor=#000000;" parent="1" vertex="1">
                    <mxGeometry x="150" y="5555" width="170" height="40" as="geometry"/>
                </mxCell>
                <mxCell id="532" value="&lt;div style=&quot;background-color: rgb(255, 255, 255); font-family: Consolas, &amp;quot;Courier New&amp;quot;, monospace; font-weight: normal; font-size: 14px; line-height: 19px;&quot;&gt;&lt;div&gt;&lt;span style=&quot;&quot;&gt;i_writeEnable_forWordMode&lt;/span&gt;&lt;/div&gt;&lt;/div&gt;" style="text;whiteSpace=wrap;html=1;fontColor=#CC0000;" parent="1" vertex="1">
                    <mxGeometry x="-167.5" y="5580" width="230" height="40" as="geometry"/>
                </mxCell>
                <mxCell id="533" value="&lt;div style=&quot;background-color: rgb(255, 255, 255); font-family: Consolas, &amp;quot;Courier New&amp;quot;, monospace; font-weight: normal; font-size: 14px; line-height: 19px;&quot;&gt;&lt;div&gt;&lt;span style=&quot;&quot;&gt;i_readEnable_forWordMode&lt;/span&gt;&lt;/div&gt;&lt;/div&gt;" style="text;whiteSpace=wrap;html=1;fontColor=#CC0000;" parent="1" vertex="1">
                    <mxGeometry x="-167.5" y="5610" width="220" height="40" as="geometry"/>
                </mxCell>
                <mxCell id="534" value="&lt;div style=&quot;color: rgb(0, 0, 0); background-color: rgb(255, 255, 255); font-family: Consolas, &amp;quot;Courier New&amp;quot;, monospace; font-weight: normal; font-size: 14px; line-height: 19px;&quot;&gt;&lt;div&gt;&lt;span style=&quot;color: #000000;&quot;&gt;i_addr_forHalfMode&lt;/span&gt;&lt;/div&gt;&lt;/div&gt;" style="text;whiteSpace=wrap;html=1;" parent="1" vertex="1">
                    <mxGeometry x="-165" y="5690" width="170" height="40" as="geometry"/>
                </mxCell>
                <mxCell id="535" value="&lt;div style=&quot;color: rgb(0, 0, 0); background-color: rgb(255, 255, 255); font-family: Consolas, &amp;quot;Courier New&amp;quot;, monospace; font-weight: normal; font-size: 14px; line-height: 19px;&quot;&gt;&lt;div&gt;&lt;span style=&quot;color: #000000;&quot;&gt;i_data_forHalfMode&lt;/span&gt;&lt;/div&gt;&lt;/div&gt;" style="text;whiteSpace=wrap;html=1;" parent="1" vertex="1">
                    <mxGeometry x="-160" y="5720" width="170" height="40" as="geometry"/>
                </mxCell>
                <mxCell id="536" value="&lt;div style=&quot;background-color: rgb(255, 255, 255); font-family: Consolas, &amp;quot;Courier New&amp;quot;, monospace; font-weight: normal; font-size: 14px; line-height: 19px;&quot;&gt;&lt;div&gt;&lt;span style=&quot;&quot;&gt;i_writeEnable_forHalfMode&lt;/span&gt;&lt;/div&gt;&lt;/div&gt;" style="text;whiteSpace=wrap;html=1;fontColor=#CC0000;" parent="1" vertex="1">
                    <mxGeometry x="-160" y="5750" width="230" height="40" as="geometry"/>
                </mxCell>
                <mxCell id="537" value="&lt;div style=&quot;background-color: rgb(255, 255, 255); font-family: Consolas, &amp;quot;Courier New&amp;quot;, monospace; font-weight: normal; font-size: 14px; line-height: 19px;&quot;&gt;&lt;div&gt;&lt;span style=&quot;&quot;&gt;i_readEnable_forHalfMode&lt;/span&gt;&lt;/div&gt;&lt;/div&gt;" style="text;whiteSpace=wrap;html=1;fontColor=#CC0000;" parent="1" vertex="1">
                    <mxGeometry x="-162.5" y="5780" width="220" height="40" as="geometry"/>
                </mxCell>
                <mxCell id="565" style="edgeStyle=orthogonalEdgeStyle;html=1;fontColor=#000000;endArrow=none;endFill=0;" parent="1" source="538" target="549" edge="1">
                    <mxGeometry relative="1" as="geometry">
                        <Array as="points">
                            <mxPoint x="420" y="5745"/>
                            <mxPoint x="420" y="5810"/>
                        </Array>
                    </mxGeometry>
                </mxCell>
                <mxCell id="566" style="edgeStyle=orthogonalEdgeStyle;html=1;fontColor=#000000;endArrow=none;endFill=0;" parent="1" source="538" target="547" edge="1">
                    <mxGeometry relative="1" as="geometry"/>
                </mxCell>
                <mxCell id="538" value="&lt;div style=&quot;background-color: rgb(255, 255, 255); font-family: Consolas, &amp;quot;Courier New&amp;quot;, monospace; font-weight: normal; font-size: 14px; line-height: 19px;&quot;&gt;&lt;div&gt;&lt;span style=&quot;&quot;&gt;o_data_forHalfMode&lt;/span&gt;&lt;/div&gt;&lt;/div&gt;" style="text;whiteSpace=wrap;html=1;fontColor=#000000;" parent="1" vertex="1">
                    <mxGeometry x="155" y="5725" width="170" height="40" as="geometry"/>
                </mxCell>
                <mxCell id="539" value="&lt;div style=&quot;color: rgb(0, 0, 0); background-color: rgb(255, 255, 255); font-family: Consolas, &amp;quot;Courier New&amp;quot;, monospace; font-weight: normal; font-size: 14px; line-height: 19px;&quot;&gt;&lt;div&gt;&lt;span style=&quot;color: #000000;&quot;&gt;i_addr_forByteMode&lt;/span&gt;&lt;/div&gt;&lt;/div&gt;" style="text;whiteSpace=wrap;html=1;" parent="1" vertex="1">
                    <mxGeometry x="-150" y="5900" width="170" height="40" as="geometry"/>
                </mxCell>
                <mxCell id="540" value="&lt;div style=&quot;color: rgb(0, 0, 0); background-color: rgb(255, 255, 255); font-family: Consolas, &amp;quot;Courier New&amp;quot;, monospace; font-weight: normal; font-size: 14px; line-height: 19px;&quot;&gt;&lt;div&gt;&lt;span style=&quot;color: #000000;&quot;&gt;i_data_forByteMode&lt;/span&gt;&lt;/div&gt;&lt;/div&gt;" style="text;whiteSpace=wrap;html=1;" parent="1" vertex="1">
                    <mxGeometry x="-150" y="5930" width="170" height="40" as="geometry"/>
                </mxCell>
                <mxCell id="541" value="&lt;div style=&quot;background-color: rgb(255, 255, 255); font-family: Consolas, &amp;quot;Courier New&amp;quot;, monospace; font-weight: normal; font-size: 14px; line-height: 19px;&quot;&gt;&lt;div&gt;&lt;span style=&quot;&quot;&gt;i_writeEnable_forByteMode&lt;/span&gt;&lt;/div&gt;&lt;/div&gt;" style="text;whiteSpace=wrap;html=1;fontColor=#CC0000;" parent="1" vertex="1">
                    <mxGeometry x="-155" y="5970" width="230" height="40" as="geometry"/>
                </mxCell>
                <mxCell id="542" value="&lt;div style=&quot;background-color: rgb(255, 255, 255); font-family: Consolas, &amp;quot;Courier New&amp;quot;, monospace; font-weight: normal; font-size: 14px; line-height: 19px;&quot;&gt;&lt;div&gt;&lt;span style=&quot;&quot;&gt;i_readEnable_forByteMode&lt;/span&gt;&lt;/div&gt;&lt;/div&gt;" style="text;whiteSpace=wrap;html=1;fontColor=#CC0000;" parent="1" vertex="1">
                    <mxGeometry x="-157.5" y="6010" width="220" height="40" as="geometry"/>
                </mxCell>
                <mxCell id="544" value="&lt;div style=&quot;background-color: rgb(255, 255, 255); font-family: Consolas, &amp;quot;Courier New&amp;quot;, monospace; font-weight: normal; font-size: 14px; line-height: 19px;&quot;&gt;&lt;div&gt;&lt;span style=&quot;&quot;&gt;o_data_forByteMode&lt;/span&gt;&lt;/div&gt;&lt;/div&gt;" style="text;whiteSpace=wrap;html=1;fontColor=#000000;" parent="1" vertex="1">
                    <mxGeometry x="155" y="5955" width="170" height="40" as="geometry"/>
                </mxCell>
                <mxCell id="546" value="32" style="edgeStyle=orthogonalEdgeStyle;html=1;entryX=0.291;entryY=1.113;entryDx=0;entryDy=0;entryPerimeter=0;strokeColor=#000000;fontColor=#000000;endArrow=none;endFill=0;fillColor=none;elbow=vertical;" parent="1" source="547" target="552" edge="1">
                    <mxGeometry relative="1" as="geometry"/>
                </mxCell>
                <mxCell id="547" value="Sign-extend&lt;br&gt;(16-&amp;gt;32)" style="ellipse;whiteSpace=wrap;html=1;fillColor=none;" parent="1" vertex="1">
                    <mxGeometry x="540" y="5680" width="100" height="100" as="geometry"/>
                </mxCell>
                <mxCell id="548" value="32" style="edgeStyle=orthogonalEdgeStyle;html=1;entryX=0.789;entryY=0.847;entryDx=0;entryDy=0;entryPerimeter=0;strokeColor=#000000;fontColor=#000000;endArrow=none;endFill=0;fillColor=none;elbow=vertical;" parent="1" source="549" target="552" edge="1">
                    <mxGeometry relative="1" as="geometry"/>
                </mxCell>
                <mxCell id="549" value="Zero-extend&lt;br&gt;(16-&amp;gt;32)" style="ellipse;whiteSpace=wrap;html=1;fillColor=none;" parent="1" vertex="1">
                    <mxGeometry x="540" y="5802.5" width="100" height="100" as="geometry"/>
                </mxCell>
                <mxCell id="550" style="edgeStyle=orthogonalEdgeStyle;html=1;strokeColor=#000000;fontColor=#000000;endArrow=none;endFill=0;fillColor=none;elbow=vertical;entryX=0.597;entryY=0.96;entryDx=0;entryDy=0;entryPerimeter=0;" parent="1" source="552" target="554" edge="1">
                    <mxGeometry relative="1" as="geometry">
                        <mxPoint x="840" y="5742.5" as="targetPoint"/>
                    </mxGeometry>
                </mxCell>
                <mxCell id="551" value="&lt;font color=&quot;#000000&quot;&gt;32&lt;/font&gt;" style="edgeLabel;html=1;align=center;verticalAlign=middle;resizable=0;points=[];fontColor=#FF0000;" parent="550" vertex="1" connectable="0">
                    <mxGeometry x="-0.1045" y="-6" relative="1" as="geometry">
                        <mxPoint as="offset"/>
                    </mxGeometry>
                </mxCell>
                <mxCell id="552" value="" style="verticalLabelPosition=bottom;shadow=0;align=center;html=1;verticalAlign=top;strokeWidth=1;shape=trapezoid;perimeter=none;fillColor=default;rotation=90;" parent="1" vertex="1">
                    <mxGeometry x="725" y="5777.5" width="75" height="25" as="geometry"/>
                </mxCell>
                <mxCell id="553" value="3" style="edgeLabel;html=1;align=center;verticalAlign=middle;resizable=0;points=[];fontColor=#000000;" parent="1" vertex="1" connectable="0">
                    <mxGeometry x="950.4848718496428" y="5691.214613609408" as="geometry"/>
                </mxCell>
                <mxCell id="554" value="" style="verticalLabelPosition=bottom;shadow=0;align=center;html=1;verticalAlign=top;strokeWidth=1;shape=trapezoid;perimeter=none;fillColor=default;rotation=90;" parent="1" vertex="1">
                    <mxGeometry x="915" y="5769.6900000000005" width="75" height="25" as="geometry"/>
                </mxCell>
                <mxCell id="555" value="32" style="edgeStyle=orthogonalEdgeStyle;html=1;entryX=0.341;entryY=0.76;entryDx=0;entryDy=0;entryPerimeter=0;strokeColor=#000000;fontColor=#000000;endArrow=none;endFill=0;fillColor=none;elbow=vertical;" parent="1" source="556" target="562" edge="1">
                    <mxGeometry relative="1" as="geometry"/>
                </mxCell>
                <mxCell id="556" value="Sign-extend&lt;br&gt;(8-&amp;gt;32)" style="ellipse;whiteSpace=wrap;html=1;fillColor=none;" parent="1" vertex="1">
                    <mxGeometry x="540" y="5932.5" width="100" height="100" as="geometry"/>
                </mxCell>
                <mxCell id="557" style="edgeStyle=orthogonalEdgeStyle;html=1;entryX=0.665;entryY=0.989;entryDx=0;entryDy=0;entryPerimeter=0;strokeColor=#000000;fontColor=#000000;endArrow=none;endFill=0;fillColor=none;elbow=vertical;" parent="1" source="559" target="562" edge="1">
                    <mxGeometry relative="1" as="geometry"/>
                </mxCell>
                <mxCell id="558" value="32" style="edgeLabel;html=1;align=center;verticalAlign=middle;resizable=0;points=[];fontColor=#000000;" parent="557" vertex="1" connectable="0">
                    <mxGeometry x="0.4173" y="3" relative="1" as="geometry">
                        <mxPoint as="offset"/>
                    </mxGeometry>
                </mxCell>
                <mxCell id="559" value="Zero-extend&lt;br&gt;(8-&amp;gt;32)" style="ellipse;whiteSpace=wrap;html=1;fillColor=none;" parent="1" vertex="1">
                    <mxGeometry x="540" y="6062.5" width="100" height="100" as="geometry"/>
                </mxCell>
                <mxCell id="560" style="edgeStyle=orthogonalEdgeStyle;html=1;entryX=0.807;entryY=0.989;entryDx=0;entryDy=0;entryPerimeter=0;strokeColor=#000000;fontColor=#000000;endArrow=none;endFill=0;fillColor=none;elbow=vertical;" parent="1" source="562" target="554" edge="1">
                    <mxGeometry relative="1" as="geometry"/>
                </mxCell>
                <mxCell id="561" value="32" style="edgeLabel;html=1;align=center;verticalAlign=middle;resizable=0;points=[];fontColor=#000000;" parent="560" vertex="1" connectable="0">
                    <mxGeometry x="0.5228" y="-6" relative="1" as="geometry">
                        <mxPoint as="offset"/>
                    </mxGeometry>
                </mxCell>
                <mxCell id="562" value="" style="verticalLabelPosition=bottom;shadow=0;align=center;html=1;verticalAlign=top;strokeWidth=1;shape=trapezoid;perimeter=none;fillColor=default;rotation=90;" parent="1" vertex="1">
                    <mxGeometry x="765" y="6007.5" width="75" height="25" as="geometry"/>
                </mxCell>
                <mxCell id="563" value="" style="edgeStyle=orthogonalEdgeStyle;endArrow=none;html=1;rounded=0;endSize=8;startSize=8;sourcePerimeterSpacing=0;targetPerimeterSpacing=0;fontColor=#000000;exitX=1;exitY=0.773;exitDx=0;exitDy=0;exitPerimeter=0;endFill=0;" parent="1" source="545" target="556" edge="1">
                    <mxGeometry width="100" relative="1" as="geometry">
                        <mxPoint x="380" y="5990" as="sourcePoint"/>
                        <mxPoint x="480" y="6030" as="targetPoint"/>
                    </mxGeometry>
                </mxCell>
                <mxCell id="564" value="" style="edgeStyle=segmentEdgeStyle;endArrow=none;html=1;curved=0;rounded=0;endSize=8;startSize=8;sourcePerimeterSpacing=0;targetPerimeterSpacing=0;fontColor=#000000;exitX=1;exitY=0.5;exitDx=0;exitDy=0;endFill=0;" parent="1" source="544" target="559" edge="1">
                    <mxGeometry width="100" relative="1" as="geometry">
                        <mxPoint x="415" y="6080" as="sourcePoint"/>
                        <mxPoint x="515" y="6120" as="targetPoint"/>
                        <Array as="points">
                            <mxPoint x="325" y="5980"/>
                            <mxPoint x="465" y="5980"/>
                            <mxPoint x="465" y="6120"/>
                        </Array>
                    </mxGeometry>
                </mxCell>
                <mxCell id="568" value="" style="whiteSpace=wrap;html=1;fillColor=none;" parent="1" vertex="1">
                    <mxGeometry x="1510" y="5320" width="190" height="970" as="geometry"/>
                </mxCell>
                <mxCell id="569" value="&lt;span style=&quot;&quot;&gt;o_reg_data_fromDatMem&lt;br&gt;(32)&lt;br&gt;&lt;/span&gt;" style="whiteSpace=wrap;html=1;fillColor=none;" parent="1" vertex="1">
                    <mxGeometry x="1520" y="5735" width="150" height="50" as="geometry"/>
                </mxCell>
                <mxCell id="579" style="edgeStyle=orthogonalEdgeStyle;html=1;entryX=0.04;entryY=0.483;entryDx=0;entryDy=0;entryPerimeter=0;strokeColor=#000000;strokeWidth=1;fontColor=#000000;endArrow=none;endFill=0;" parent="1" source="570" target="527" edge="1">
                    <mxGeometry relative="1" as="geometry"/>
                </mxCell>
                <mxCell id="580" style="edgeStyle=orthogonalEdgeStyle;html=1;strokeColor=#FF8000;strokeWidth=2;fontColor=#000000;endArrow=none;endFill=0;" parent="1" source="570" target="581" edge="1">
                    <mxGeometry relative="1" as="geometry">
                        <mxPoint x="-300" y="5250" as="targetPoint"/>
                        <Array as="points">
                            <mxPoint x="-300" y="5340"/>
                            <mxPoint x="50" y="5340"/>
                        </Array>
                    </mxGeometry>
                </mxCell>
                <mxCell id="570" value="" style="verticalLabelPosition=bottom;shadow=0;align=center;html=1;verticalAlign=top;strokeWidth=1;shape=trapezoid;perimeter=none;fillColor=default;rotation=90;" parent="1" vertex="1">
                    <mxGeometry x="-337.5" y="5520" width="75" height="25" as="geometry"/>
                </mxCell>
                <mxCell id="582" style="edgeStyle=orthogonalEdgeStyle;html=1;entryX=0.25;entryY=1.007;entryDx=0;entryDy=0;entryPerimeter=0;strokeColor=#FF8000;strokeWidth=2;fontColor=#000000;endArrow=none;endFill=0;" parent="1" source="581" target="570" edge="1">
                    <mxGeometry relative="1" as="geometry">
                        <Array as="points">
                            <mxPoint x="-360" y="5170"/>
                            <mxPoint x="-360" y="5514"/>
                        </Array>
                    </mxGeometry>
                </mxCell>
                <mxCell id="581" value="Dbug Unit" style="whiteSpace=wrap;html=1;fontColor=#000000;fillColor=none;" parent="1" vertex="1">
                    <mxGeometry x="-20" y="5140" width="120" height="60" as="geometry"/>
                </mxCell>
                <mxCell id="589" value="" style="shape=curlyBracket;whiteSpace=wrap;html=1;rounded=1;labelPosition=left;verticalLabelPosition=middle;align=right;verticalAlign=middle;fontColor=#000000;fillColor=none;rotation=-90;" parent="1" vertex="1">
                    <mxGeometry x="695" y="5970" width="20" height="590" as="geometry"/>
                </mxCell>
                <mxCell id="590" value="logica para loads con y sin signo" style="ellipse;shape=cloud;whiteSpace=wrap;html=1;fontColor=#000000;fillColor=none;" parent="1" vertex="1">
                    <mxGeometry x="640" y="6300" width="120" height="80" as="geometry"/>
                </mxCell>
                <mxCell id="591" value="" style="verticalLabelPosition=bottom;shadow=0;align=center;html=1;verticalAlign=top;strokeWidth=1;shape=trapezoid;perimeter=none;fillColor=default;rotation=90;" parent="1" vertex="1">
                    <mxGeometry x="1115" y="5780.000000000001" width="75" height="25" as="geometry"/>
                </mxCell>
                <mxCell id="604" style="edgeStyle=orthogonalEdgeStyle;html=1;strokeColor=#CC0000;strokeWidth=2;fontColor=#000000;endArrow=none;endFill=0;" parent="1" source="599" target="533" edge="1">
                    <mxGeometry relative="1" as="geometry"/>
                </mxCell>
                <mxCell id="599" value="" style="verticalLabelPosition=bottom;shadow=0;dashed=0;align=center;html=1;verticalAlign=top;shape=mxgraph.electrical.logic_gates.inverter_2;fontColor=#000000;fillColor=none;" parent="1" vertex="1">
                    <mxGeometry x="-250" y="5605" width="50" height="40" as="geometry"/>
                </mxCell>
                <mxCell id="603" style="edgeStyle=orthogonalEdgeStyle;html=1;strokeColor=#CC0000;strokeWidth=2;fontColor=#000000;endArrow=none;endFill=0;" parent="1" source="600" target="537" edge="1">
                    <mxGeometry relative="1" as="geometry"/>
                </mxCell>
                <mxCell id="600" value="" style="verticalLabelPosition=bottom;shadow=0;dashed=0;align=center;html=1;verticalAlign=top;shape=mxgraph.electrical.logic_gates.inverter_2;fontColor=#000000;fillColor=none;" parent="1" vertex="1">
                    <mxGeometry x="-250" y="5772.5" width="50" height="40" as="geometry"/>
                </mxCell>
                <mxCell id="602" style="edgeStyle=orthogonalEdgeStyle;html=1;strokeColor=#CC0000;strokeWidth=2;fontColor=#000000;endArrow=none;endFill=0;" parent="1" source="601" target="542" edge="1">
                    <mxGeometry relative="1" as="geometry"/>
                </mxCell>
                <mxCell id="601" value="" style="verticalLabelPosition=bottom;shadow=0;dashed=0;align=center;html=1;verticalAlign=top;shape=mxgraph.electrical.logic_gates.inverter_2;fontColor=#000000;fillColor=none;" parent="1" vertex="1">
                    <mxGeometry x="-255" y="6010" width="50" height="40" as="geometry"/>
                </mxCell>
                <mxCell id="605" value="MuxDorPCMas4" style="text;html=1;align=center;verticalAlign=middle;resizable=0;points=[];autosize=1;strokeColor=none;fillColor=none;fontColor=#000000;" parent="1" vertex="1">
                    <mxGeometry x="1105" y="5837.5" width="110" height="30" as="geometry"/>
                </mxCell>
                <mxCell id="606" value="MuxForSize" style="text;html=1;align=center;verticalAlign=middle;resizable=0;points=[];autosize=1;strokeColor=none;fillColor=none;fontColor=#000000;" parent="1" vertex="1">
                    <mxGeometry x="910" y="5837.5" width="90" height="30" as="geometry"/>
                </mxCell>
            </root>
        </mxGraphModel>
    </diagram>
</mxfile>